HIERARCHY
ROOT Hips
{
    OFFSET 0.000000 0.000000 0.000000
    CHANNELS 6 Xposition Yposition Zposition Zrotation Xrotation Yrotation
    JOINT Spine
    {
        OFFSET -0.000000 7.246840 0.000000
        CHANNELS 3 Zrotation Xrotation Yrotation
        JOINT Spine1
        {
            OFFSET -0.000000 20.289354 0.000000
            CHANNELS 3 Zrotation Xrotation Yrotation
            JOINT Neck
            {
                OFFSET -0.000000 20.206032 1.836912
                CHANNELS 3 Zrotation Xrotation Yrotation
                JOINT Head
                {
                    OFFSET -0.000000 12.372654 -1.767522
                    CHANNELS 3 Zrotation Xrotation Yrotation
                    End Site
                    {
                        OFFSET -0.000000 22.094025 0.000000
                    }
                }
            }
            JOINT LeftShoulder
            {
                OFFSET 3.465871 17.201674 -0.568930
                CHANNELS 3 Zrotation Xrotation Yrotation
                JOINT LeftArm
                {
                    OFFSET 14.070313 0.000000 0.000000
                    CHANNELS 3 Zrotation Xrotation Yrotation
                    JOINT LeftForeArm
                    {
                        OFFSET 26.549477 0.000000 0.000000
                        CHANNELS 3 Zrotation Xrotation Yrotation
                        JOINT LeftHand
                        {
                            OFFSET 18.880413 0.000000 0.000000
                            CHANNELS 3 Zrotation Xrotation Yrotation
                            End Site
                            {
                                OFFSET 13.256415 0.000000 0.000000
                            }
                        }
                    }
                }
            }
            JOINT RightShoulder
            {
                OFFSET -3.526370 17.201674 -0.568930
                CHANNELS 3 Zrotation Xrotation Yrotation
                JOINT RightArm
                {
                    OFFSET -14.070313 0.000000 0.000000
                    CHANNELS 3 Zrotation Xrotation Yrotation
                    JOINT RightForeArm
                    {
                        OFFSET -26.549477 0.000000 0.000000
                        CHANNELS 3 Zrotation Xrotation Yrotation
                        JOINT RightHand
                        {
                            OFFSET -18.880413 0.000000 0.000000
                            CHANNELS 3 Zrotation Xrotation Yrotation
                            End Site
                            {
                                OFFSET -13.256415 0.000000 0.000000
                            }
                        }
                    }
                }
            }
        }
    }
    JOINT LeftUpLeg
    {
        OFFSET 8.837609 0.000000 0.000000
        CHANNELS 3 Zrotation Xrotation Yrotation
        JOINT LeftLeg
        {
            OFFSET -0.000000 -41.345005 0.000000
            CHANNELS 3 Zrotation Xrotation Yrotation
            JOINT LeftFoot
            {
                OFFSET -0.000000 -35.500874 0.000000
                CHANNELS 3 Zrotation Xrotation Yrotation
                JOINT LeftToeBase
                {
                    OFFSET -0.000000 -5.744446 13.256415
                    CHANNELS 3 Zrotation Xrotation Yrotation
                    End Site
                    {
                        OFFSET -0.000000 0.000000 3.535044
                    }
                }
            }
        }
    }
    JOINT RightUpLeg
    {
        OFFSET -8.837609 0.000000 0.000000
        CHANNELS 3 Zrotation Xrotation Yrotation
        JOINT RightLeg
        {
            OFFSET -0.000000 -41.345005 0.000000
            CHANNELS 3 Zrotation Xrotation Yrotation
            JOINT RightFoot
            {
                OFFSET -0.000000 -35.500874 0.000000
                CHANNELS 3 Zrotation Xrotation Yrotation
                JOINT RightToeBase
                {
                    OFFSET -0.000000 -5.744446 13.256415
                    CHANNELS 3 Zrotation Xrotation Yrotation
                    End Site
                    {
                        OFFSET -0.000000 0.000000 3.535044
                    }
                }
            }
        }
    }
}
MOTION
Frames:    9
Frame Time:    0.010000
-1.931752    82.552910    -18.563118    3.178810    2.489064    2.662430    -2.379335    -12.154028    -0.845840    -4.865292    2.675668    -0.478855    4.308681    33.432442    -3.201919    2.797404    -10.416512    -1.947190    19.066458    1.366453    5.480011    -35.231167    4.905600    -11.618974    8.419640    -12.143600    -10.900785    -39.671951    -10.721018    -1.792330    -16.156219    1.820557    10.925092    13.154008    5.287850    9.628718    -4.070124    -10.483955    4.662205    8.759023    -9.240127    14.246264    -0.858877    6.585279    -0.458100    -1.771984    -9.435547    -7.170706    1.604037    1.517412    -3.650370    -0.791957    -1.299042    1.117425    -5.400815    -0.022812    -4.278543    4.413527    1.729899    4.806810    -0.313815    -7.248011    -9.912790    0.164802    -1.817355    -0.301502    
-1.912167    82.553474    -18.564335    3.193875    2.482563    2.646774    -2.318554    -12.130966    -0.837158    -4.879058    2.649188    -0.477883    4.326783    33.453487    -3.242789    2.710626    -10.469842    -2.004454    19.074999    1.349661    5.472963    -35.233044    4.917431    -11.558095    8.422758    -12.211155    -10.957018    -39.680931    -10.767235    -1.840612    -16.186003    1.773127    10.934002    12.984463    5.322965    9.677494    -4.048822    -10.372237    4.679616    8.614274    -9.127582    14.492700    -0.879709    6.580011    -0.471903    -1.808111    -9.370045    -7.371534    1.633552    1.481270    -3.426896    -0.790614    -1.308877    1.115597    -5.427164    -0.024030    -4.294448    4.410381    1.742616    4.860180    -0.315368    -7.240860    -9.939990    0.167936    -1.842009    -0.307320    
-1.890744    82.554466    -18.563805    3.206513    2.471348    2.633984    -2.243877    -12.104174    -0.823282    -4.914882    2.621317    -0.472798    4.324154    33.470520    -3.238005    2.675594    -10.512011    -2.006295    19.096699    1.357497    5.467280    -35.254848    4.936237    -11.516294    8.412882    -12.306004    -11.022338    -39.578075    -10.835970    -1.910259    -16.206079    1.733896    10.935008    12.789189    5.448542    9.713137    -4.034918    -10.285306    4.739126    8.563148    -9.031631    14.674352    -0.912251    6.588017    -0.436999    -1.789603    -9.365780    -7.440042    1.607114    1.490069    -3.380339    -0.793493    -1.308172    1.119655    -5.450463    -0.015788    -4.284059    4.397023    1.750033    4.845039    -0.301171    -7.258404    -9.923642    0.154494    -1.828210    -0.282677    
-1.871233    82.555176    -18.564234    3.221201    2.462864    2.626382    -2.172218    -12.078627    -0.817029    -4.952218    2.591901    -0.475185    4.353277    33.556252    -3.285950    2.617959    -10.649348    -2.057549    19.104528    1.362519    5.483841    -35.281639    4.901055    -11.503112    8.435547    -12.312330    -11.042121    -39.607735    -10.835396    -1.918101    -16.225815    1.690598    10.944702    12.596845    5.644241    9.750778    -4.046230    -10.294132    4.801060    8.510904    -9.034258    14.811654    -0.926328    6.584233    -0.469719    -1.811333    -9.330439    -7.459646    1.613849    1.484020    -3.316997    -0.786530    -1.326401    1.109954    -5.472997    -0.013008    -4.310455    4.385555    1.760440    4.880226    -0.274198    -7.259680    -9.929256    0.164940    -1.834236    -0.301811    
-1.851828    82.556656    -18.565557    3.232775    2.458902    2.618457    -2.088618    -12.055055    -0.809659    -5.002904    2.558520    -0.477279    4.335337    33.560616    -3.278520    2.623337    -10.664620    -2.051122    19.106440    1.370385    5.491780    -35.070446    5.758353    -11.349801    8.356637    -12.824125    -11.269319    -39.442898    -11.295240    -2.057043    -16.262772    1.661221    10.946236    12.442634    5.746890    9.797741    -4.065667    -10.355798    4.908842    8.498390    -9.085986    14.908275    -0.949103    6.581567    -0.476292    -1.812516    -9.325896    -7.437919    1.630253    1.408719    -3.523290    -0.909714    -1.266065    1.283310    -5.492037    -0.016933    -4.331358    4.376746    1.773076    4.859389    -0.252728    -7.267380    -9.877753    0.163021    -1.819552    -0.298251    
-1.831455    82.557312    -18.566475    3.247737    2.456614    2.612187    -2.002583    -12.034707    -0.795543    -5.066828    2.524687    -0.472790    4.329353    33.564548    -3.279709    2.642408    -10.676169    -2.048503    19.114765    1.388498    5.490667    -35.114384    5.672826    -11.356996    8.384841    -12.782960    -11.254107    -39.442478    -11.260497    -2.033514    -16.290152    1.653975    10.947312    12.300149    5.771483    9.824597    -4.104850    -10.469846    4.991220    8.579999    -9.174906    15.046173    -0.982459    6.578061    -0.431946    -1.807305    -9.312265    -7.481053    1.636823    1.405144    -3.516955    -0.889684    -1.259909    1.255008    -5.517769    -0.010642    -4.271910    4.367567    1.756039    4.785578    -0.228445    -7.260984    -9.855485    0.182486    -1.833552    -0.333916    
-1.809511    82.559479    -18.564884    3.267799    2.450158    2.605765    -1.920569    -12.017359    -0.782991    -5.141266    2.501594    -0.468437    4.354400    33.563091    -3.270036    2.644553    -10.684779    -2.033516    19.141268    1.351862    5.467693    -35.179981    5.609082    -11.301732    8.410178    -12.729173    -11.245278    -39.454113    -11.211733    -2.012517    -16.301851    1.639124    10.927169    12.154760    5.750981    9.897278    -4.125206    -10.626022    5.021347    8.665632    -9.305109    15.222555    -1.013164    6.580583    -0.449478    -1.816146    -9.299248    -7.450776    1.655657    1.405347    -3.536426    -0.902423    -1.265286    1.273019    -5.550331    -0.002988    -4.281225    4.366370    1.762643    4.848002    -0.238681    -7.270124    -9.907658    0.170907    -1.814161    -0.312659    
-1.791293    82.559441    -18.563606    3.278703    2.448421    2.598013    -1.839486    -11.999876    -0.771640    -5.193373    2.465988    -0.466419    4.297351    33.541939    -3.246182    2.745893    -10.641156    -1.996888    19.138151    1.335415    5.452162    -35.232227    5.526298    -11.260800    8.428633    -12.641602    -11.239813    -39.510983    -11.137837    -1.965222    -16.329199    1.643498    10.916912    12.025380    5.646647    9.965313    -4.125912    -10.740828    5.071043    8.665071    -9.409201    15.346835    -1.036127    6.581534    -0.446098    -1.830065    -9.287880    -7.397544    1.661814    1.401589    -3.574722    -0.893529    -1.257122    1.260410    -5.568972    -0.001553    -4.286354    4.357448    1.753750    4.780177    -0.222748    -7.270581    -9.838708    0.149923    -1.817504    -0.274282    
-1.769050    82.559746    -18.561783    3.295833    2.449682    2.593455    -1.751029    -11.992575    -0.760618    -5.270057    2.440087    -0.464406    4.357180    33.548027    -3.240083    2.696742    -10.656117    -1.991033    19.140963    1.320906    5.448655    -35.279724    5.448749    -11.238702    8.433153    -12.538270    -11.221079    -39.581333    -11.051920    -1.913204    -16.342287    1.633346    10.912175    11.876364    5.674184    9.999357    -4.139477    -10.855841    5.161015    8.696244    -9.508978    15.448219    -1.060829    6.589222    -0.436827    -1.840030    -9.302634    -7.421213    1.683367    1.412753    -3.573094    -0.901236    -1.269929    1.271380    -5.600143    -0.001815    -4.291868    4.351191    1.759903    4.803700    -0.196579    -7.280682    -9.859340    0.149865    -1.819843    -0.274183    
